<?xml version="1.0" encoding="UTF-8" standalone="no"?>
<!-- Created with Inkscape (http://www.inkscape.org/) -->

<svg
   width="120mm"
   height="120mm"
   viewBox="0 0 120 120"
   version="1.1"
   id="svg1"
   xml:space="preserve"
   inkscape:version="1.4 (86a8ad7, 2024-10-11)"
   sodipodi:docname="account_icon.svg"
   xmlns:inkscape="http://www.inkscape.org/namespaces/inkscape"
   xmlns:sodipodi="http://sodipodi.sourceforge.net/DTD/sodipodi-0.dtd"
   xmlns="http://www.w3.org/2000/svg"
   xmlns:svg="http://www.w3.org/2000/svg"><sodipodi:namedview
     id="namedview1"
     pagecolor="#505050"
     bordercolor="#eeeeee"
     borderopacity="1"
     inkscape:showpageshadow="0"
     inkscape:pageopacity="0"
     inkscape:pagecheckerboard="0"
     inkscape:deskcolor="#505050"
     inkscape:document-units="mm"
     inkscape:zoom="0.68862935"
     inkscape:cx="396.43968"
     inkscape:cy="561.25984"
     inkscape:window-width="1920"
     inkscape:window-height="991"
     inkscape:window-x="-9"
     inkscape:window-y="-9"
     inkscape:window-maximized="1"
     inkscape:current-layer="layer1" /><defs
     id="defs1" /><g
     inkscape:groupmode="layer"
     id="layer1"
     inkscape:label="Layer 1"><path
       style="fill:#ffffff;stroke-width:0.967901;fill-opacity:1"
       d="m 53.206102,119.74315 c -3.609284,-0.40683 -8.346117,-1.4883 -12.295089,-2.80708 C 18.845371,109.56714 3.1451976,90.231567 0.29407108,66.914224 -0.09816644,63.706388 -0.09798928,56.134729 0.29439637,53.088428 2.9535501,32.443947 15.009179,15.374878 33.370799,6.2569105 56.398445,-5.1781006 84.084912,-0.65874371 102.3587,17.518038 c 11.42813,11.367471 17.61555,26.223019 17.6412,42.355263 0.0111,7.027492 -0.89283,12.71592 -3.05165,19.202495 -7.37967,22.173664 -27.260389,38.161424 -50.604482,40.695334 -2.922436,0.31722 -10.213027,0.30169 -13.137666,-0.028 z m 13.83197,-5.33825 c 7.214729,-0.95851 14.803035,-3.40885 18.378602,-5.93463 l 0.704402,-0.49758 v -8.186428 c 0,-9.422993 -0.188348,-10.890042 -1.826828,-14.229097 -1.846867,-3.763742 -5.208635,-6.759075 -9.237009,-8.230188 l -1.871623,-0.683495 -12.295088,-0.08012 c -8.578866,-0.05593 -12.759612,0.0097 -13.831971,0.216674 -4.834707,0.933777 -9.248867,4.349792 -11.403198,8.824666 -1.601273,3.326087 -1.788406,4.812161 -1.788406,14.202224 v 8.207034 l 1.458321,0.93246 c 4.417257,2.82442 11.63178,5.02702 18.665561,5.69859 2.967172,0.2833 10.095061,0.15215 13.047237,-0.24006 z M 29.11663,87.396879 c 1.889864,-6.534707 6.180955,-11.651573 12.040607,-14.357694 1.076588,-0.497187 2.844807,-1.153519 3.929376,-1.458514 1.903714,-0.535342 2.419518,-0.554522 14.9074,-0.554522 12.608497,0 12.987253,0.01442 14.984644,0.572444 7.955803,2.222501 13.869247,8.16067 15.922246,15.988843 0.323157,1.23224 0.455489,3.381061 0.573696,9.316102 l 0.15365,7.714422 1.664958,-1.25162 c 4.311953,-3.2415 8.975483,-8.240891 12.138423,-13.012661 9.45612,-14.265958 11.73425,-32.008071 6.18216,-48.146663 C 109.69703,36.635474 106.00647,30.01262 102.30178,25.496222 100.44277,23.229914 96.309754,19.13684 94.06165,17.335746 86.682952,11.424198 77.435031,7.4529718 67.550371,5.9513156 63.703993,5.366983 56.485546,5.36405 52.484465,5.9452192 42.806303,7.350943 33.300454,11.427933 25.926375,17.335775 23.678277,19.136869 19.545259,23.229943 17.686251,25.496251 12.886552,31.34756 8.883902,39.328637 6.9478196,46.908145 5.4784743,52.660431 5.0139668,60.992622 5.8199989,67.13864 c 1.1301645,8.617533 4.6092791,17.492306 9.6018281,24.493021 3.174444,4.451312 7.593814,9.009619 11.657213,12.023699 l 1.280738,0.95 0.156288,-7.836127 c 0.126272,-6.331075 0.241619,-8.131172 0.600564,-9.372325 z M 55.255282,64.312643 C 46.310046,62.399181 39.402037,55.372377 37.569106,46.322337 c -0.583435,-2.880691 -0.401733,-7.769918 0.390745,-10.514176 2.211374,-7.657744 8.308783,-13.708958 16.047766,-15.926175 1.696823,-0.486146 2.644862,-0.578598 5.986396,-0.583785 3.396358,-0.0048 4.264972,0.07916 6.008832,0.583765 7.764571,2.246994 13.810115,8.255136 16.025331,15.926195 0.792482,2.744258 0.974178,7.633485 0.390752,10.514176 -1.850411,9.136328 -8.805413,16.146682 -17.867494,18.009708 -2.456955,0.505112 -6.88735,0.495861 -9.296152,-0.01935 z m 8.452874,-5.339356 c 6.525652,-1.37957 11.93885,-6.83798 13.350442,-13.461928 0.505938,-2.374127 0.336363,-6.346686 -0.366248,-8.580306 C 74.379276,29.57781 67.537688,24.54072 59.863269,24.54072 c -5.053666,0 -10.56154,2.726075 -13.596757,6.729609 -4.011998,5.29193 -4.809393,12.23861 -2.062765,17.970255 1.856898,3.874958 4.371242,6.423347 8.233912,8.345411 3.426956,1.705254 7.433626,2.198434 11.270497,1.387292 z"
       id="path1" /></g></svg>
