<?xml version="1.0" encoding="UTF-8" standalone="no"?>
<!-- Created with Inkscape (http://www.inkscape.org/) -->

<svg
   width="150mm"
   height="150mm"
   viewBox="0 0 150 150"
   version="1.1"
   id="svg1"
   xml:space="preserve"
   inkscape:version="1.4 (86a8ad7, 2024-10-11)"
   sodipodi:docname="trip_icon.svg"
   xmlns:inkscape="http://www.inkscape.org/namespaces/inkscape"
   xmlns:sodipodi="http://sodipodi.sourceforge.net/DTD/sodipodi-0.dtd"
   xmlns="http://www.w3.org/2000/svg"
   xmlns:svg="http://www.w3.org/2000/svg"><sodipodi:namedview
     id="namedview1"
     pagecolor="#505050"
     bordercolor="#eeeeee"
     borderopacity="1"
     inkscape:showpageshadow="0"
     inkscape:pageopacity="0"
     inkscape:pagecheckerboard="0"
     inkscape:deskcolor="#505050"
     inkscape:document-units="mm"
     inkscape:zoom="1.3772587"
     inkscape:cx="307.13184"
     inkscape:cy="312.57744"
     inkscape:window-width="1920"
     inkscape:window-height="991"
     inkscape:window-x="-9"
     inkscape:window-y="-9"
     inkscape:window-maximized="1"
     inkscape:current-layer="svg1" /><defs
     id="defs1" /><path
     style="fill:#000000;stroke-width:1.00287"
     d="m 59.681491,149.88526 c -1.529979,-0.51623 -2.43027,-2.36467 -1.981212,-4.06776 0.120019,-0.45519 0.446248,-0.9731 0.972687,-1.54422 l 0.792101,-0.85932 4.057281,0.0993 c 2.231505,0.0546 4.355517,0.16134 4.720028,0.23715 0.791133,0.16451 1.625714,0.92492 1.88052,1.7134 0.571747,1.76919 -0.244951,3.79926 -1.71495,4.26284 -0.648606,0.20455 -8.184338,0.34148 -8.726455,0.15857 z m 23.385263,-0.0255 c -1.845709,-0.31631 -3.022208,-2.1095 -2.552589,-3.8906 0.218515,-0.82871 1.214667,-1.95833 1.967217,-2.23081 0.894442,-0.32386 7.646473,-0.26672 8.760055,0.0741 1.331442,0.40754 1.983274,1.37759 1.983274,2.95154 0,1.72834 -0.953787,2.79927 -2.75589,3.09436 -1.149854,0.18829 -6.305812,0.18926 -7.402067,0.001 z m 22.761766,0.058 c -0.69616,-0.0579 -0.86168,-0.14368 -1.35692,-0.70349 -0.31022,-0.35068 -0.70177,-0.95556 -0.8701,-1.34418 -0.61871,-1.42838 -0.0575,-3.2546 1.18541,-3.85688 0.68727,-0.33307 3.33923,-0.54226 6.97957,-0.55058 l 2.5423,-0.006 0.77472,0.83655 c 0.4548,0.49109 0.85143,1.09805 0.9605,1.46981 0.42602,1.45212 -0.32238,3.05529 -1.76816,3.7877 -0.73974,0.37475 -0.87381,0.38781 -4.20927,0.40993 -1.89485,0.0126 -3.80197,-0.007 -4.23805,-0.0431 z m -69.941616,-3.43057 c -1.264735,-0.32924 -1.901949,-0.65997 -2.884601,-1.49715 C 28.912384,141.50547 12.999755,125.23082 8.0363559,119.45603 2.5291763,113.04856 -0.67896644,102.30605 0.12169376,92.95368 0.48753381,88.680357 1.4365576,84.939378 3.2857069,80.481371 3.8340645,79.159368 4.3205386,77.884621 4.3667612,77.648599 4.4434832,77.25684 4.3960762,77.202722 3.8223612,77.027184 3.095651,76.804833 2.2260842,76.077855 1.8515071,75.379503 1.6271771,74.961267 1.5913944,74.378346 1.5913944,71.14201 c 0,-4.194931 0.124436,-4.904857 1.0480127,-5.979089 0.6398552,-0.744231 1.2537067,-0.978755 2.5618172,-0.978755 h 1.0934334 l 0.9750651,0.977224 0.975066,0.977226 -0.2264994,3.11391 c -0.1245759,1.71265 -0.2089013,3.131882 -0.1873913,3.153849 0.021505,0.02197 0.6900731,-0.702952 1.485697,-1.61093 5.1982989,-5.932379 12.0073699,-10.083866 19.5950019,-11.947064 1.04763,-0.257253 2.597817,-0.531597 3.444862,-0.609652 3.291298,-0.303295 10.429665,-0.08007 12.642731,0.395342 10.807544,2.321712 20.563532,10.020463 25.615387,20.213887 1.896042,3.825769 2.993677,7.417567 3.665565,11.994919 l 0.344261,2.345338 1.759737,0.111684 c 2.181981,0.13848 3.097095,0.355098 3.704279,0.876859 0.949421,0.815849 1.331432,2.580918 0.794469,3.670818 -0.387489,0.786519 -1.302077,1.6665 -1.893006,1.821357 -0.296894,0.07783 -1.41902,0.190319 -2.493621,0.250032 -1.826327,0.101475 -1.958474,0.130285 -2.025153,0.441445 -0.0392,0.18309 -0.181816,1.03649 -0.316851,1.89645 -0.986754,6.28433 -3.938036,13.04507 -7.507972,17.19917 -4.938743,5.74687 -20.90229,22.07453 -24.961344,25.53067 -0.600427,0.51124 -1.427194,1.05146 -1.83726,1.20048 -0.734315,0.26686 -3.332163,0.46358 -3.960777,0.29994 z m 3.786188,-8.56363 c 2.75202,-2.63672 19.201434,-19.52422 20.958251,-21.5164 1.992866,-2.25988 2.626418,-3.11355 3.55657,-4.7923 C 72.171559,97.2058 67.806304,78.739045 54.259499,69.613708 50.566963,67.126359 45.71005,65.291953 41.551788,64.814136 39.492594,64.577519 34.717216,64.617206 32.696444,64.887734 21.51798,66.384219 11.812387,74.733998 8.0293555,86.108973 6.9564596,89.334998 6.709125,90.791438 6.6147218,94.439067 6.4466712,100.93241 7.144226,104.64641 9.4649079,109.61431 c 1.8352201,3.92868 2.9917681,5.2973 14.2453171,16.85747 8.666605,8.90274 13.337971,13.54508 13.629766,13.54508 0.0815,0 1.131403,-0.94202 2.333101,-2.09336 z m -5.296613,-23.72108 c -3.971535,-0.59227 -7.682353,-2.54764 -10.47753,-5.52098 -1.922785,-2.04534 -3.337326,-4.46051 -4.220711,-7.20635 -0.957003,-2.974661 -0.954873,-8.003581 0.0047,-11.010286 1.814852,-5.686853 6.990615,-10.784476 12.409484,-12.222137 2.255718,-0.598457 6.917946,-0.549824 9.672589,0.100901 2.213546,0.522898 5.318835,2.387223 7.466379,4.482595 3.352692,3.271241 4.958227,6.675681 5.411451,11.474656 0.505326,5.350665 -1.125651,10.218101 -4.752998,14.184711 -3.912902,4.27886 -10.032914,6.53418 -15.513327,5.7169 z m 5.368938,-6.87204 c 1.956162,-0.51093 3.448327,-1.42073 5.104553,-3.11232 1.237375,-1.2638 1.571399,-1.71941 2.182908,-2.9775 0.998191,-2.05363 1.249636,-3.128237 1.243899,-5.316103 -0.0055,-2.086692 -0.255,-3.186868 -1.152536,-5.08157 -0.97543,-2.059146 -2.566128,-3.764803 -4.763724,-5.108005 -1.558433,-0.952536 -2.629338,-1.241364 -4.942563,-1.333033 -2.494748,-0.09886 -3.766468,0.150691 -5.664884,1.111633 -2.801358,1.417994 -4.705989,3.644936 -5.793542,6.773946 -0.448122,1.289289 -0.476352,1.503221 -0.479944,3.637029 -0.0033,1.940601 0.04752,2.436074 0.352577,3.439829 1.12396,3.698254 3.808151,6.550304 7.284855,7.740414 2.203293,0.7542 4.327887,0.82654 6.628401,0.22568 z m 86.710283,35.60957 c -0.82225,-0.2677 -1.61966,-1.18428 -1.83767,-2.11231 -0.30809,-1.31159 0.0279,-2.16268 1.55796,-3.94648 0.69722,-0.81285 1.83636,-2.23171 2.53141,-3.15302 0.69505,-0.92131 1.38403,-1.74085 1.53105,-1.82121 0.14702,-0.0804 0.59721,-0.1966 1.00041,-0.25834 1.98116,-0.30337 3.77935,1.25911 3.78253,3.2867 0.002,1.53937 -3.9928,6.94376 -5.84919,7.91231 -0.63459,0.3311 -1.85566,0.3726 -2.7165,0.0923 z m 7.33138,-21.26642 c -0.89767,-0.48478 -1.25028,-1.22477 -1.9186,-4.02638 -0.29604,-1.24101 -0.70653,-2.8053 -0.9122,-3.4762 -0.63751,-2.07948 -0.43712,-3.02961 0.90547,-4.29345 0.84473,-0.79518 1.24386,-0.91002 2.36415,-0.68025 1.66071,0.3406 2.38256,1.31305 3.32082,4.47361 0.79681,2.6841 1.08426,4.60638 0.85627,5.72603 -0.2073,1.01804 -0.99683,2.08336 -1.79709,2.42483 -0.79111,0.33757 -2.04101,0.27186 -2.81882,-0.14819 z M 122.2381,102.97534 c -0.42104,-0.1576 -1.17891,-0.47797 -1.68416,-0.71194 -0.50524,-0.23395 -1.77051,-0.76687 -2.8117,-1.18425 -2.34101,-0.93845 -2.95289,-1.342001 -3.3705,-2.222985 -0.69628,-1.468864 -0.2487,-3.216623 1.03697,-4.049356 1.39125,-0.901091 1.59576,-0.904841 4.05595,-0.07429 4.75662,1.605813 6.96728,3.255125 6.98046,5.207928 0.008,1.139563 -0.78672,2.379663 -1.88127,2.936673 -0.91757,0.46695 -1.29781,0.48301 -2.32575,0.0982 z M 94.296444,99.848742 c -1.638825,-0.240728 -2.562483,-0.992343 -2.926214,-2.381154 -0.460767,-1.759374 0.482897,-3.513072 2.095989,-3.895128 0.330308,-0.07824 2.273539,-0.143932 4.318281,-0.145979 3.01536,-0.003 3.82485,0.04196 4.28485,0.238265 2.62729,1.121064 2.5607,5.244059 -0.0971,6.01195 -0.70832,0.204639 -6.560855,0.335834 -7.675806,0.172046 z M 117.45367,73.011225 c -1.37505,-0.378133 -1.87089,-0.743574 -4.70808,-3.46997 -5.2893,-5.08275 -17.525061,-17.947057 -19.079056,-20.059156 -2.08172,-2.82933 -4.162337,-7.862844 -4.942317,-11.956643 -1.036096,-5.438075 -0.618319,-11.433712 1.159907,-16.646257 0.610956,-1.790918 2.205143,-5.111699 3.1928,-6.650797 2.32548,-3.623871 5.307924,-6.6989596 8.861916,-9.137187 3.00628,-2.0624664 5.77891,-3.2991419 9.95469,-4.44008357 L 114.27664,0 l 4.36349,6.607786e-4 c 3.51123,5.320714e-4 4.68809,0.0563587414 6.02541,0.2858353914 4.6149,0.79188843 9.0959,2.75769663 12.88392,5.65214403 1.47848,1.1297196 4.19438,3.7907054 5.50854,5.3971748 3.00593,3.67454 5.40239,8.589835 6.33423,12.991911 0.73517,3.473017 0.81412,9.246852 0.17817,13.030536 -0.51703,3.076129 -2.00279,7.160373 -3.61155,9.927846 -1.14359,1.96727 -2.89675,4.104568 -6.68239,8.146581 -4.55485,4.863336 -15.7512,16.017378 -16.8551,16.791439 -1.36261,0.955449 -3.26144,1.256307 -4.96769,0.787097 z m 8.16468,-12.931406 c 8.64718,-8.877879 11.80291,-12.23493 13.32984,-14.180246 3.30862,-4.215168 4.8852,-9.688244 4.58634,-15.921492 -0.18251,-3.806606 -0.73285,-6.031121 -2.31047,-9.33908 -2.09092,-4.384239 -4.71209,-7.455046 -8.62587,-10.105554 -2.71166,-1.8363946 -6.17438,-3.2797803 -9.13525,-3.8078965 -1.95003,-0.3478158 -5.81966,-0.4777297 -7.4745,-0.2509377 -3.6304,0.4975379 -7.18142,1.9053338 -10.59189,4.1991272 -1.97808,1.33041 -5.12826,4.521433 -6.48907,6.573208 -1.721342,2.595371 -3.189227,5.966986 -3.76799,8.654789 -0.167773,0.779168 -0.274128,2.302961 -0.331091,4.744052 -0.09884,4.233429 0.07205,5.663472 1.024336,8.574041 1.113671,3.403814 2.197343,5.289262 4.867495,8.46877 1.24311,1.480261 18.20395,18.997262 18.39409,18.997262 0.0493,0 2.98513,-2.972719 6.52403,-6.606043 z m -8.66237,-13.252385 c -5.6535,-0.781378 -10.57598,-4.667882 -12.38745,-9.780418 -0.79251,-2.236707 -0.97802,-3.546943 -0.89254,-6.303777 0.10613,-3.422281 0.68413,-5.393548 2.31335,-7.889536 1.8821,-2.883401 4.89996,-5.188469 8.47366,-6.472248 1.12646,-0.404655 1.33802,-0.427838 3.87092,-0.424151 3.87128,0.0057 5.97695,0.589465 8.67657,2.405716 3.23413,2.175866 5.42587,5.312026 6.44014,9.215238 0.54328,2.090653 0.57281,5.361764 0.0672,7.436111 -0.40322,1.654099 -1.43888,3.960549 -2.38086,5.30228 -1.46826,2.091359 -4.01333,4.215497 -6.34385,5.294645 -2.20597,1.021472 -5.52223,1.536082 -7.83709,1.21614 z m 3.87055,-6.795824 c 0.57097,-0.123556 1.39635,-0.421366 1.83419,-0.661799 0.99361,-0.545614 2.84739,-2.320497 3.48727,-3.338845 1.70631,-2.715514 1.73377,-6.411484 0.0685,-9.217791 -1.02561,-1.728328 -2.8564,-3.247461 -4.70979,-3.908034 -1.31607,-0.469064 -3.38986,-0.576502 -4.76302,-0.246758 -3.05956,0.734709 -5.68131,3.287697 -6.44297,6.273986 -0.27411,1.074729 -0.30737,3.45247 -0.0649,4.6374 0.57297,2.799606 3.14359,5.490262 6.18429,6.473056 0.83168,0.268812 3.13954,0.262938 4.40642,-0.01122 z M 11.390112,55.842998 c -1.357435,-0.635561 -2.1374369,-2.269473 -1.7624063,-3.691807 0.3890373,-1.47545 3.8562703,-4.344238 7.1006163,-5.875049 1.05995,-0.500126 1.229336,-0.537386 1.768712,-0.389062 0.966567,0.265796 2.037518,1.092971 2.433664,1.879698 0.283899,0.563812 0.343527,0.894026 0.300124,1.662059 -0.07596,1.344176 -0.480181,1.81292 -3.07818,3.569562 -1.19316,0.806756 -2.637813,1.80453 -3.210339,2.217273 -0.960155,0.692192 -1.120594,0.754011 -2.066917,0.796413 -0.637665,0.02857 -1.199796,-0.03542 -1.485274,-0.169087 z m 44.819269,-6.184659 c -0.839211,-0.223438 -1.660619,-0.885305 -2.007887,-1.617897 -0.602041,-1.270059 -0.319746,-3.10453 0.61195,-3.976705 0.700801,-0.65603 1.115203,-0.714734 5.570252,-0.789069 l 4.286939,-0.07153 0.91863,0.957739 0.918629,0.957739 v 1.387746 c 0,1.313444 -0.02512,1.419915 -0.46915,1.988594 -0.863799,1.106283 -1.103296,1.16036 -5.458036,1.232403 -2.129342,0.03523 -4.096439,0.0042 -4.371327,-0.06902 z m 23.695198,-8.76e-4 c -0.715762,-0.05816 -1.439186,-0.184692 -1.607605,-0.281164 -0.95992,-0.549869 -1.607604,-1.8423 -1.607604,-3.207943 0,-0.747247 0.03999,-0.819703 1.033466,-1.8726 l 1.033457,-1.095277 4.286941,0.06221 c 4.747203,0.06889 4.808304,0.08099 5.710348,1.130173 1.077925,1.253756 1.038011,3.150339 -0.09189,4.365101 -0.845607,0.909135 -1.062107,0.957542 -4.393644,0.982406 -1.684157,0.01257 -3.647732,-0.02474 -4.363494,-0.08291 z M 32.018175,48.90036 c -0.847839,-1.039963 -1.107182,-1.626121 -1.107182,-2.50241 0,-0.855931 0.48431,-1.766867 1.423024,-2.67656 l 0.5442,-0.527376 4.260233,0.06477 c 4.845878,0.07368 5.069666,0.123953 5.970157,1.341278 0.9439,1.276007 0.82614,2.706248 -0.343561,4.172671 l -0.694215,0.870318 h -4.723584 -4.723586 z"
     id="path1" /></svg>
